<?xml version="1.0" standalone="no"?>
<!DOCTYPE svg PUBLIC "-//W3C//DTD SVG 20010904//EN"
 "http://www.w3.org/TR/2001/REC-SVG-20010904/DTD/svg10.dtd">
<svg version="1.0" xmlns="http://www.w3.org/2000/svg"
 width="1500.000000pt" height="1500.000000pt" viewBox="0 0 1500.000000 1500.000000"
 preserveAspectRatio="xMidYMid meet">

<g transform="translate(0.000000,1500.000000) scale(0.100000,-0.100000)"
fill="#000000" stroke="none">
<path d="M6845 12892 c-118 -48 -118 -48 -113 -88 2 -19 1 -34 -4 -34 -4 0
-44 14 -90 30 -88 32 -130 37 -146 18 -29 -36 -432 -838 -432 -861 0 -31 31
-51 66 -43 16 4 33 23 50 58 20 39 28 48 35 37 4 -8 58 -143 119 -300 61 -156
118 -294 126 -306 9 -14 25 -23 39 -23 22 0 960 361 1015 390 12 6 20 21 20
35 0 13 -52 158 -116 322 -64 164 -119 304 -121 310 -3 9 13 6 52 -7 42 -14
62 -17 76 -10 27 15 35 58 16 78 -9 8 -85 40 -169 71 l-152 56 -56 140 c-30
77 -59 146 -63 153 -14 20 -58 13 -152 -26z m168 -119 c26 -64 45 -119 43
-121 -4 -4 -217 73 -247 88 -17 10 -45 67 -37 75 7 7 171 73 184 74 6 1 32
-52 57 -116z m-43 -139 c234 -86 429 -160 435 -165 18 -17 -23 -9 -105 21 -81
30 -81 30 -74 7 4 -12 65 -170 135 -350 71 -181 129 -332 129 -336 0 -7 -308
-131 -328 -131 -8 0 -102 225 -171 413 -6 15 -12 27 -14 27 -2 0 -71 -27 -153
-59 -99 -39 -148 -64 -146 -73 2 -7 40 -106 84 -221 48 -123 78 -211 72 -216
-16 -15 -327 -132 -339 -128 -5 3 -71 160 -145 351 -74 190 -137 346 -140 346
-3 0 -25 -39 -48 -86 -30 -60 -46 -84 -54 -76 -7 7 49 125 180 378 104 203
199 388 211 412 12 23 27 42 34 42 7 0 204 -70 437 -156z m59 -755 c39 -100
74 -191 77 -203 4 -19 -6 -25 -107 -64 -61 -24 -113 -42 -114 -40 -10 9 -155
393 -152 401 3 11 182 84 208 86 13 1 35 -44 88 -180z"/>
<path d="M6673 12410 c-143 -73 -102 -282 58 -298 61 -6 128 30 153 82 66 140
-75 285 -211 216z m111 -34 c44 -19 76 -61 76 -103 0 -93 -89 -150 -170 -108
-40 21 -60 53 -60 98 0 51 22 91 62 110 41 20 50 21 92 3z"/>
<path d="M7760 12630 c-14 -5 -51 -16 -83 -25 -32 -9 -61 -23 -64 -31 -2 -7
64 -222 147 -476 l152 -463 96 -98 c54 -55 103 -96 112 -95 13 3 14 22 11 132
l-3 129 -129 406 c-185 581 -167 531 -192 530 -12 0 -33 -4 -47 -9z m51 -67
c27 -73 26 -77 -38 -97 -32 -10 -63 -21 -69 -23 -11 -4 -44 74 -44 103 0 11
86 42 123 43 10 1 22 -10 28 -26z m39 -127 c0 -2 3 -11 6 -19 4 -11 -11 -20
-60 -37 -67 -22 -89 -20 -84 8 4 20 138 67 138 48z m129 -402 c56 -179 101
-327 99 -328 -1 -2 -31 -10 -66 -18 -57 -15 -63 -15 -71 1 -12 23 -201 603
-201 617 0 11 95 51 125 53 6 1 57 -146 114 -325z m111 -446 l0 -72 -55 54
c-30 30 -55 57 -55 61 0 7 63 26 93 28 15 1 17 -9 17 -71z"/>
<path d="M8139 12521 c-35 -34 -39 -44 -39 -87 0 -61 16 -92 59 -121 114 -77
259 55 196 178 -23 43 -71 69 -129 69 -43 0 -53 -4 -87 -39z"/>
<path d="M5517 12459 c-21 -11 -53 -41 -70 -66 -18 -25 -44 -61 -59 -80 l-27
-34 -9 35 c-31 112 -136 150 -207 76 -37 -38 -44 -116 -21 -206 9 -34 16 -81
16 -105 0 -41 -3 -45 -38 -61 -46 -22 -72 -63 -72 -118 0 -59 24 -92 107 -152
40 -28 73 -58 73 -67 -1 -9 -8 -62 -18 -119 l-17 -103 -105 -35 c-58 -18 -107
-34 -108 -34 -2 0 -1 21 2 48 8 58 -14 106 -64 140 -35 24 -52 25 -144 10 -14
-2 -31 15 -62 62 -24 36 -55 82 -69 103 -54 80 -151 103 -205 49 -40 -41 -47
-88 -21 -148 12 -26 20 -49 17 -51 -2 -2 -37 3 -77 12 -113 23 -149 20 -205
-17 -163 -111 -115 -373 76 -417 25 -6 135 -18 245 -26 178 -15 201 -19 213
-37 35 -49 148 -64 196 -27 38 30 51 62 67 157 10 64 17 86 32 94 27 14 188
68 204 68 10 0 13 -25 13 -104 0 -132 12 -195 52 -276 58 -114 173 -177 307
-168 173 13 298 147 309 329 4 67 1 83 -23 138 -34 75 -94 131 -174 163 -80
31 -225 31 -340 0 -46 -13 -85 -21 -87 -19 -5 4 23 178 30 184 2 3 20 -7 39
-21 18 -14 47 -29 64 -32 71 -14 151 57 161 143 5 44 15 59 148 209 78 89 150
177 160 195 21 42 22 131 2 180 -22 51 -77 109 -123 130 -54 25 -139 24 -188
-2z m196 -52 c60 -46 81 -84 85 -155 3 -38 1 -63 -5 -61 -19 8 -283 204 -283
211 0 4 12 14 28 23 43 24 132 15 175 -18z m-451 -28 c25 -13 54 -79 63 -141
4 -27 11 -48 15 -48 4 0 36 38 71 85 35 46 69 83 75 82 23 -5 284 -203 281
-214 -2 -11 -244 -290 -272 -313 -10 -8 -48 14 -161 93 l-149 104 -7 79 c-3
43 -11 92 -17 107 -6 16 -11 49 -11 73 0 37 6 51 29 75 32 31 50 35 83 18z
m58 -497 c98 -69 156 -116 158 -128 4 -26 -37 -86 -70 -102 -19 -9 -34 -9 -53
-2 -38 14 -272 187 -279 206 -22 57 17 134 66 134 13 0 91 -47 178 -108z
m-760 -118 c17 -15 40 -44 50 -64 11 -21 41 -67 68 -102 l48 -63 -36 -172
c-19 -94 -37 -174 -40 -177 -7 -6 -423 28 -436 37 -7 4 -1 70 14 184 14 98 25
178 26 179 0 1 54 -8 119 -19 65 -11 120 -17 123 -14 4 3 -11 33 -31 66 -45
73 -51 124 -16 152 32 27 74 24 111 -7z m-372 -348 c-15 -118 -26 -166 -35
-166 -19 0 -65 75 -73 118 -14 85 25 172 92 205 18 9 34 14 36 13 1 -2 -7 -78
-20 -170z m700 119 c16 -14 32 -36 34 -49 3 -13 -8 -92 -23 -175 -33 -185 -45
-206 -122 -198 -30 2 -56 12 -68 24 -19 19 -19 21 20 208 29 137 44 193 57
202 28 20 70 15 102 -12z m684 -66 c142 -30 224 -113 235 -239 11 -118 -53
-237 -158 -295 -47 -26 -64 -29 -134 -30 -71 0 -86 3 -135 31 -113 64 -150
147 -157 354 l-5 136 98 23 c55 13 104 24 109 26 23 8 98 4 147 -6z"/>
<path d="M8590 12412 c0 -38 -51 -767 -56 -797 -3 -22 -12 -50 -18 -62 -6 -13
-96 -110 -199 -217 -106 -110 -194 -210 -202 -230 -33 -78 -3 -180 73 -248 48
-43 105 -56 173 -38 91 24 135 59 284 221 156 170 200 211 284 261 30 18 63
45 75 60 28 39 33 131 11 217 -18 66 -17 78 6 439 l24 372 -30 5 c-32 4 -354
25 -399 25 -14 0 -26 -3 -26 -8z m283 -48 l128 -7 -3 -31 c-2 -17 -7 -31 -13
-31 -79 3 -307 17 -327 21 -23 5 -28 11 -28 36 l0 31 58 -7 c31 -3 115 -9 185
-12z m-20 -103 c70 -5 131 -12 134 -15 4 -3 -2 -135 -11 -294 l-18 -287 -61
-55 c-34 -30 -77 -69 -96 -86 l-34 -31 46 -81 c26 -45 47 -85 47 -89 0 -5 -27
-32 -59 -60 -32 -29 -112 -111 -177 -183 -65 -71 -122 -130 -128 -130 -6 0
-66 55 -133 122 l-122 122 142 148 c152 159 181 199 191 258 3 21 15 176 26
346 11 170 22 314 24 320 3 7 23 10 53 7 26 -2 106 -7 176 -12z m127 -712 c7
-28 10 -74 7 -102 -3 -41 -10 -56 -36 -79 -17 -15 -36 -28 -41 -28 -5 0 -27
33 -50 73 l-40 72 63 57 c34 31 67 57 74 58 6 0 16 -23 23 -51z m-641 -513
l124 -124 -33 -21 c-52 -31 -123 -45 -164 -31 -71 23 -134 125 -123 197 7 38
45 103 62 103 6 0 66 -56 134 -124z"/>
<path d="M9719 12041 c-111 -35 -248 -136 -295 -216 -24 -42 -26 -58 -47 -375
l-21 -332 36 -34 c57 -51 129 -69 283 -68 98 0 139 4 165 16 72 33 71 30 91
325 26 379 26 389 0 417 -20 21 -64 44 -114 60 -15 5 -12 13 23 58 54 72 56
129 3 157 -29 15 -57 13 -124 -8z m105 -27 c40 -15 9 -82 -71 -153 -110 -98
-290 -166 -309 -116 -24 61 153 215 300 261 48 15 59 16 80 8z m8 -230 c53
-17 81 -44 76 -71 -8 -44 -203 -69 -329 -42 l-51 11 88 43 c49 23 98 50 109
59 25 20 50 20 107 0z m-317 -136 c88 -36 289 -36 379 -2 26 10 20 -32 -9 -54
-74 -58 -335 -46 -427 20 -33 23 -41 76 -10 63 9 -4 40 -17 67 -27z m20 -114
c80 -24 262 -24 324 -2 l44 17 -6 -87 c-4 -48 -9 -131 -13 -186 l-7 -98 -46
-21 c-37 -17 -66 -21 -151 -21 -173 0 -289 47 -276 112 3 15 8 83 11 152 3 69
8 137 11 152 5 26 7 27 27 14 12 -8 49 -22 82 -32z m-40 -417 c74 -25 268 -30
328 -9 43 15 56 10 37 -13 -54 -65 -364 -53 -440 17 -25 23 -27 43 -2 33 9 -4
44 -17 77 -28z"/>
<path d="M9593 11464 c-101 -50 -100 -210 1 -258 99 -47 209 21 209 129 0 108
-112 177 -210 129z m117 -39 c37 -19 50 -43 50 -95 0 -30 -6 -47 -24 -65 -67
-67 -176 -27 -176 65 0 51 12 75 48 94 35 20 66 20 102 1z"/>
<path d="M10217 11747 c-156 -50 -197 -246 -74 -354 131 -115 337 -21 337 155
0 28 -5 63 -11 79 -12 33 -64 89 -99 108 -38 20 -111 26 -153 12z m155 -62
c90 -67 89 -212 -1 -270 -76 -49 -157 -39 -216 26 -72 80 -55 192 39 251 41
25 139 21 178 -7z"/>
<path d="M7610 11558 c-1 -2 -13 -41 -28 -88 l-27 -85 -93 -30 c-53 -17 -92
-35 -92 -42 0 -7 34 -38 75 -68 l75 -56 0 -94 c0 -52 4 -96 9 -99 5 -3 43 19
86 50 l77 55 86 -31 c57 -21 89 -27 95 -21 7 7 2 39 -16 97 l-27 87 25 36 c14
20 39 55 56 78 17 22 28 46 25 52 -5 7 -44 11 -101 11 l-94 0 -51 75 c-28 41
-57 75 -65 75 -8 0 -15 -1 -15 -2z m77 -142 l33 -46 75 0 c41 0 75 -2 75 -5 0
-3 -18 -30 -40 -59 -46 -60 -47 -72 -21 -149 11 -32 17 -57 13 -57 -4 0 -31 9
-60 20 -29 11 -60 20 -69 20 -9 0 -43 -18 -75 -41 l-58 -40 0 78 -1 78 -61 44
-62 44 74 22 74 22 24 73 c20 60 27 70 36 58 6 -9 26 -36 43 -62z"/>
<path d="M10948 11381 c-52 -33 -101 -94 -118 -147 l-12 -34 -32 25 c-18 13
-52 31 -75 40 -52 18 -152 20 -169 3 -19 -19 -14 -60 14 -116 40 -81 125 -144
213 -158 23 -4 43 -9 45 -13 11 -20 -16 -160 -43 -217 -16 -35 -32 -64 -35
-64 -3 0 -16 5 -29 11 -36 16 -125 -5 -175 -42 -64 -47 -97 -124 -97 -224 0
-69 4 -86 27 -127 58 -97 150 -144 267 -136 75 6 120 25 172 75 l36 34 49 -26
c44 -24 57 -26 130 -23 65 3 90 9 127 31 60 36 112 98 133 160 63 189 -122
400 -304 348 -30 -9 -32 -8 -38 17 -19 84 -29 113 -60 172 l-34 64 44 46 c62
63 86 119 86 205 0 123 -36 151 -122 96z m76 -27 c11 -29 6 -124 -9 -160 -17
-42 -44 -78 -80 -106 -22 -17 -28 -18 -42 -6 -67 55 -32 185 69 258 47 34 54
36 62 14z m-309 -138 c68 -32 97 -65 106 -123 4 -27 4 -52 0 -56 -14 -15 -93
6 -139 37 -50 33 -97 94 -108 139 -6 27 -6 27 42 27 30 0 68 -9 99 -24z m230
-281 c18 -38 38 -95 45 -125 10 -48 9 -56 -6 -65 -9 -5 -36 -25 -60 -43 l-45
-33 -44 17 c-25 9 -45 18 -45 19 0 1 12 28 26 59 17 38 29 87 36 153 5 54 12
104 14 112 8 24 43 -18 79 -94z m236 -195 c19 -5 54 -26 77 -46 116 -99 119
-254 6 -353 -93 -82 -234 -82 -311 1 -60 64 -86 205 -50 274 30 58 151 130
222 133 11 1 36 -4 56 -9z m-465 -81 c4 -6 20 -8 40 -5 41 8 109 -17 101 -38
-26 -66 -10 -192 33 -261 l20 -32 -32 -32 c-46 -47 -84 -63 -158 -68 -57 -4
-72 -1 -120 24 -102 53 -146 145 -121 257 15 67 52 121 99 145 40 22 127 28
138 10z"/>
<path d="M10973 10593 c-28 -68 4 -203 49 -203 22 0 22 2 -9 82 -15 41 -16 53
-5 93 7 26 10 51 7 56 -12 18 -26 8 -42 -28z"/>
<path d="M10625 10601 c-48 -21 -85 -84 -85 -147 0 -28 4 -35 17 -32 12 2 20
16 24 41 9 55 26 82 66 101 51 24 30 58 -22 37z"/>
<path d="M6990 11168 c-79 -29 -58 -148 27 -148 46 0 77 30 77 73 0 60 -50 95
-104 75z"/>
<path d="M3726 11055 c-93 -33 -166 -133 -166 -227 0 -75 19 -124 67 -178 57
-63 109 -84 201 -78 136 7 224 96 230 232 4 82 -10 125 -60 182 -65 74 -178
103 -272 69z m147 -36 c52 -14 112 -71 133 -124 53 -139 -45 -285 -192 -285
-65 0 -92 10 -139 52 -100 87 -98 234 3 318 57 47 121 60 195 39z"/>
<path d="M10185 10985 c-50 -49 -17 -135 51 -135 37 0 77 41 77 80 0 24 -7 40
-27 57 -35 30 -71 29 -101 -2z"/>
<path d="M8954 10976 c-121 -53 -86 -236 46 -236 70 0 120 53 120 128 0 47
-29 88 -76 108 -41 17 -50 17 -90 0z m104 -59 c31 -28 30 -80 -3 -112 -71 -72
-178 28 -115 108 32 40 75 42 118 4z"/>
<path d="M6103 10945 c-62 -12 -119 -27 -127 -34 -11 -10 -14 -24 -9 -56 5
-39 1 -52 -38 -118 l-43 -74 -93 -18 c-51 -9 -104 -14 -117 -11 -37 9 -484
-79 -508 -101 -70 -63 -54 -168 32 -203 27 -11 60 -7 263 30 127 24 239 49
247 56 9 7 60 22 113 32 l98 19 68 -53 c58 -45 70 -60 80 -98 6 -24 17 -46 26
-50 15 -5 256 37 275 49 17 11 12 53 -44 350 -34 179 -59 291 -68 296 -17 11
-23 11 -155 -16z m186 -307 c29 -153 50 -282 47 -286 -6 -10 -214 -48 -221
-40 -6 6 -105 529 -105 555 0 17 16 22 108 39 59 11 110 18 113 15 4 -3 30
-131 58 -283z m-271 -56 c16 -84 27 -152 24 -152 -3 0 -29 18 -58 40 l-52 41
-89 -16 c-48 -9 -96 -18 -105 -21 -18 -5 -23 5 -33 72 l-6 41 106 19 c85 15
109 23 117 39 24 44 60 97 64 93 2 -3 17 -73 32 -156z m-348 -71 c6 -34 10
-64 8 -66 -2 -2 -103 -22 -226 -45 -210 -39 -225 -41 -248 -25 -47 30 -51 90
-9 125 24 20 448 100 457 86 3 -6 11 -40 18 -75z"/>
<path d="M6174 10842 c-17 -10 65 -442 83 -442 8 0 16 6 19 14 4 11 -57 367
-72 419 -6 18 -13 21 -30 9z"/>
<path d="M6067 10823 c-3 -5 13 -106 36 -225 29 -156 44 -218 54 -218 8 0 16
6 19 14 4 10 -49 318 -71 414 -5 21 -29 30 -38 15z"/>
<path d="M4464 10718 c-201 -240 -257 -393 -194 -536 79 -181 340 -221 473
-72 70 76 87 153 63 270 -27 128 -193 421 -242 428 -16 2 -40 -19 -100 -90z
m156 -40 c113 -176 168 -330 151 -423 -21 -115 -117 -195 -232 -195 -74 0
-124 18 -173 62 -108 95 -103 245 14 419 50 74 170 219 181 219 4 0 31 -37 59
-82z"/>
<path d="M4340 10285 c0 -45 30 -105 70 -138 39 -33 106 -55 121 -40 16 16 4
30 -31 38 -62 14 -120 84 -120 145 0 23 -4 30 -20 30 -16 0 -20 -7 -20 -35z"/>
<path d="M6819 10764 c-27 -31 -31 -116 -39 -799 l-7 -650 -42 -127 c-51 -152
-116 -284 -153 -312 -39 -28 -77 -14 -103 39 -19 38 -20 60 -20 457 0 296 -3
420 -11 428 -20 20 -84 28 -148 19 -54 -7 -78 -5 -161 16 -125 32 -231 34
-292 4 -123 -59 -227 -330 -267 -697 -11 -97 -25 -159 -59 -262 -82 -251 -147
-348 -212 -318 -59 26 -59 34 -66 498 -3 234 -6 426 -7 427 -48 70 -141 129
-216 139 -74 11 -180 -47 -312 -169 l-71 -66 -38 26 c-148 100 -263 79 -428
-77 l-83 -78 -65 44 c-84 57 -116 64 -155 31 l-29 -25 -5 -369 c-5 -342 -7
-372 -26 -423 -28 -72 -70 -155 -104 -205 -31 -44 -100 -118 -106 -113 -2 2 3
28 11 58 34 127 19 182 -131 482 -58 115 -119 251 -135 301 -34 102 -55 126
-131 152 -50 17 -68 13 -101 -22 -10 -11 -61 -175 -118 -374 -101 -354 -101
-354 -140 -387 -93 -80 -114 -172 -57 -257 68 -103 277 -237 422 -270 82 -19
124 -14 223 27 132 54 270 170 357 299 18 27 36 46 39 42 4 -3 7 -31 7 -60 0
-30 5 -63 11 -75 27 -50 195 -84 224 -44 11 15 13 83 8 375 -8 540 2 604 108
717 89 93 176 119 199 59 5 -13 14 -196 19 -407 15 -527 16 -542 51 -571 32
-27 136 -53 175 -43 14 4 29 17 34 29 4 12 4 173 0 357 -11 444 -6 536 32 617
56 118 178 224 232 204 50 -19 51 -28 57 -466 7 -454 8 -464 71 -502 84 -51
224 -75 304 -53 71 20 137 85 188 189 24 48 46 94 49 101 3 11 14 4 36 -21 67
-76 235 -137 323 -118 74 17 175 106 236 209 l17 29 33 -25 c55 -42 138 -66
233 -68 77 -1 90 2 139 29 57 31 111 94 151 175 12 25 24 46 25 48 1 1 16 -11
34 -27 39 -37 135 -70 226 -78 60 -5 79 -2 123 17 67 29 123 92 170 191 l36
76 21 -31 c28 -42 89 -74 177 -92 242 -52 347 61 468 502 59 216 55 264 -22
264 -37 0 -52 -25 -87 -151 -60 -213 -135 -392 -181 -434 -25 -22 -65 -22 -90
0 -43 39 -44 61 -29 590 8 275 14 578 14 674 l0 174 -40 21 c-22 11 -67 26
-100 33 -68 14 -101 2 -109 -40 -3 -12 -10 -218 -16 -457 -15 -564 -24 -715
-50 -815 -37 -145 -129 -308 -191 -341 -25 -13 -32 -13 -57 0 -15 8 -33 26
-40 41 -15 34 -16 564 -1 1172 6 245 8 456 4 470 -7 31 -93 72 -167 80 -44 4
-56 2 -69 -13z m-692 -1085 c12 -4 30 -20 39 -34 15 -23 16 -53 11 -293 -4
-185 -10 -288 -21 -337 -21 -95 -77 -204 -127 -250 -35 -31 -46 -36 -73 -31
-44 9 -82 54 -95 117 -51 235 9 685 106 800 15 17 36 35 47 39 21 9 74 4 113
-11z m-2963 -905 c4 -14 40 -102 81 -195 76 -172 115 -289 115 -344 0 -92 -61
-195 -115 -195 -58 0 -157 77 -196 152 -27 52 -24 148 6 283 33 144 86 325 95
325 4 0 11 -12 14 -26z"/>
<path d="M9385 10730 c-198 -26 -281 -126 -198 -238 l25 -33 -42 -296 c-36
-253 -40 -297 -28 -309 9 -10 138 -32 377 -66 314 -44 364 -49 377 -37 9 10
28 114 55 309 25 177 46 297 53 299 6 2 26 19 44 37 36 36 43 84 18 133 -49
95 -233 174 -461 201 -100 11 -133 11 -220 0z m197 -40 c188 -18 362 -81 426
-154 52 -60 43 -96 -40 -151 -11 -7 -26 -88 -56 -304 -23 -161 -43 -295 -44
-297 -4 -3 -688 92 -693 97 -2 2 16 137 39 300 l42 297 -28 31 c-57 64 -32
125 66 157 43 15 79 21 181 32 6 1 53 -3 107 -8z"/>
<path d="M9394 10551 c-68 -29 -87 -130 -35 -182 25 -24 38 -29 78 -29 59 0
88 18 103 66 15 45 6 95 -23 122 -25 24 -92 36 -123 23z m99 -64 c19 -21 16
-68 -5 -94 -15 -18 -78 -16 -100 4 -33 29 -19 102 22 116 25 8 64 -4 83 -26z"/>
<path d="M8748 10561 c-20 -16 -31 -18 -64 -11 -63 15 -102 12 -108 -7 -2 -10
-7 -113 -11 -229 -8 -247 -7 -250 74 -239 25 4 54 9 64 12 37 10 15 -33 -53
-103 -75 -77 -83 -100 -55 -153 12 -25 12 -54 -5 -252 -11 -123 -20 -254 -20
-291 0 -61 3 -69 31 -97 35 -35 89 -42 137 -17 55 28 56 36 49 393 l-6 327 43
46 43 46 6 159 c4 88 7 210 7 271 0 97 -3 115 -21 138 -25 32 -75 35 -111 7z
m82 -36 c9 -11 10 -75 5 -269 l-8 -255 -44 -43 -44 -43 7 -336 c7 -335 7 -336
-15 -358 -27 -27 -75 -27 -101 -1 -25 25 -25 40 1 351 19 227 19 251 5 271 -9
12 -16 29 -16 36 0 8 31 46 69 86 l69 71 4 241 c3 133 8 246 12 253 10 16 41
14 56 -4z m-127 -21 c15 -5 17 -23 17 -189 l0 -184 -47 -7 c-68 -9 -68 -9 -67
38 2 179 1 176 34 183 53 12 47 44 -7 45 -14 0 -23 6 -23 15 0 11 7 13 28 9
38 -8 63 19 33 35 -11 6 -29 11 -40 11 -17 0 -21 6 -21 31 0 31 1 31 38 25 20
-4 45 -9 55 -12z"/>
<path d="M3542 10361 c-43 -28 -72 -77 -72 -126 0 -108 115 -177 216 -129 48
23 74 70 74 133 0 46 -4 56 -38 93 -35 37 -45 42 -93 45 -42 3 -61 0 -87 -16z"/>
<path d="M3913 10065 c-70 -49 -6 -165 74 -134 56 21 71 82 28 124 -28 29 -70
32 -102 10z"/>
<path d="M3132 10050 c-41 -25 -72 -76 -72 -117 0 -27 -5 -34 -27 -39 -75 -18
-130 -101 -118 -175 9 -51 56 -106 113 -132 57 -25 176 -26 273 -2 108 27 112
32 107 179 -4 133 -22 193 -76 249 -57 60 -138 75 -200 37z m144 -41 c21 -12
43 -41 61 -77 25 -52 28 -66 28 -172 l0 -115 -60 -17 c-68 -19 -193 -23 -244
-8 -44 12 -87 54 -101 96 -22 66 35 139 110 139 l36 0 -4 52 c-4 49 -2 55 31
88 42 42 91 47 143 14z"/>
<path d="M10618 9980 c-234 -43 -431 -81 -437 -84 -6 -4 -18 -20 -26 -36 -14
-26 -11 -52 40 -332 51 -286 55 -304 81 -327 23 -19 36 -22 71 -18 39 4 45 2
69 -30 31 -41 94 -72 144 -73 76 0 162 69 177 142 3 15 13 30 22 32 9 3 108
21 221 41 113 19 223 41 245 49 22 7 58 12 81 12 34 -1 46 -7 70 -35 32 -39
95 -71 139 -71 71 0 151 62 175 135 8 25 21 39 45 49 55 23 69 55 62 139 -4
40 -11 88 -17 109 -17 60 -190 319 -228 341 l-34 20 -161 -28 c-89 -15 -167
-29 -172 -31 -6 -3 -16 9 -23 24 -14 32 -50 53 -90 51 -15 -1 -219 -36 -454
-79z m486 34 c21 -8 26 -30 82 -347 33 -186 44 -271 37 -278 -6 -6 -116 -30
-244 -53 l-234 -42 -13 30 c-32 73 -95 116 -172 116 -101 0 -180 -77 -180
-175 0 -49 -57 -65 -84 -22 -14 23 -106 520 -106 575 0 17 6 34 13 39 11 7
826 159 869 162 9 0 23 -2 32 -5z m450 -48 c17 -18 48 -61 68 -94 l37 -61 -57
-11 c-31 -7 -95 -20 -142 -31 -46 -10 -86 -16 -88 -14 -6 5 -33 207 -28 212 4
5 134 31 160 32 10 1 33 -14 50 -33z m-245 -80 c6 -41 14 -99 17 -130 6 -50 9
-55 28 -51 86 20 309 65 321 65 34 0 85 -140 85 -234 0 -56 -61 -91 -74 -42
-8 33 -52 83 -88 102 -16 8 -51 15 -78 16 -99 0 -170 -62 -178 -157 -5 -57
-25 -75 -56 -51 -14 11 -112 523 -102 534 7 6 66 20 92 21 19 1 23 -7 33 -73z
m301 -351 c61 -59 59 -148 -6 -204 -29 -26 -43 -31 -88 -31 -39 0 -60 6 -80
21 -77 61 -74 179 7 230 48 30 127 22 167 -16z m-954 -178 c19 -20 36 -48 40
-62 17 -67 -30 -144 -99 -163 -117 -33 -217 90 -159 196 28 53 68 74 131 69
47 -3 59 -9 87 -40z"/>
<path d="M9260 9485 c-174 -78 -153 -319 31 -365 82 -21 175 24 216 104 23 45
21 123 -5 173 -44 84 -158 125 -242 88z m140 -44 c99 -52 110 -195 20 -258
-80 -56 -203 -16 -231 77 -38 128 96 243 211 181z"/>
<path d="M10005 9449 c-148 -28 -144 -26 -138 -49 4 -13 11 -19 22 -16 9 3 57
12 106 21 147 26 145 25 145 46 0 23 -4 23 -135 -2z"/>
<path d="M9966 9342 c-131 -25 -171 -43 -132 -58 8 -3 85 7 171 22 128 22 155
30 153 43 -5 23 -37 22 -192 -7z"/>
<path d="M9990 9245 c-96 -18 -192 -35 -212 -39 -30 -5 -38 -12 -38 -28 0 -17
5 -20 28 -15 15 3 110 20 212 38 102 17 188 35 191 38 4 3 4 13 0 22 -5 13
-26 12 -181 -16z"/>
<path d="M11293 8975 c-29 -20 -38 -46 -143 -421 -90 -319 -95 -332 -126 -353
-79 -55 -113 -155 -79 -232 18 -39 18 -41 -4 -87 -24 -48 -114 -187 -150 -232
l-21 -25 0 491 c0 433 -2 493 -16 505 -20 17 -109 23 -161 11 -36 -8 -53 -6
-110 15 -88 33 -244 43 -289 20 -136 -70 -252 -359 -299 -742 -23 -192 -122
-462 -194 -529 -26 -25 -35 -28 -58 -20 -14 5 -35 22 -47 37 -20 28 -21 41
-26 450 -4 374 -7 426 -22 453 -37 67 -135 125 -217 128 -69 2 -163 -48 -260
-139 -43 -41 -81 -75 -84 -75 -2 0 -35 20 -71 45 -68 45 -101 54 -136 35 -41
-22 -43 -42 -50 -425 l-6 -370 -42 -124 c-70 -201 -134 -311 -182 -311 -36 0
-77 51 -86 105 -4 27 -5 242 -2 478 6 494 15 452 -100 487 -82 25 -114 25
-138 -1 -18 -20 -19 -46 -25 -393 l-5 -371 -43 -127 c-51 -152 -116 -284 -153
-311 -23 -17 -31 -18 -55 -8 -16 6 -38 26 -49 44 -18 30 -19 59 -24 452 -3
294 -9 426 -17 440 -34 58 -123 115 -203 130 -70 13 -219 -70 -314 -176 l-38
-41 3 275 c3 216 1 278 -10 290 -15 19 -99 52 -158 62 -36 6 -46 3 -66 -17
-23 -23 -24 -27 -30 -288 -4 -146 -7 -428 -7 -626 l0 -361 -35 -115 c-74 -247
-144 -368 -208 -368 -67 1 -113 51 -127 137 -6 32 -10 223 -10 425 l0 367 38
10 c20 5 73 19 116 30 43 11 86 26 94 35 10 10 15 36 16 78 1 61 0 63 -25 66
-14 2 -72 -8 -127 -22 -55 -15 -103 -26 -106 -26 -3 0 -2 71 1 158 3 88 3 171
-1 186 -8 34 -91 75 -168 83 -88 9 -89 7 -96 -267 l-5 -230 -45 -12 c-36 -9
-47 -17 -58 -44 -18 -44 -18 -99 1 -118 12 -11 23 -12 47 -5 18 5 36 9 40 9 5
0 8 -141 8 -312 1 -381 11 -545 37 -591 24 -42 94 -88 169 -112 87 -28 225
-27 279 2 52 28 95 73 139 147 30 49 36 55 36 34 0 -48 74 -87 165 -87 86 -1
79 -39 85 481 l5 463 32 68 c36 76 124 172 168 183 37 9 74 -5 99 -39 20 -27
21 -43 28 -420 3 -216 10 -405 13 -420 18 -71 124 -125 262 -134 75 -5 87 -3
138 22 63 30 117 94 160 187 l25 55 38 -37 c72 -72 272 -106 360 -61 48 25
116 98 144 156 24 50 38 58 38 22 0 -13 8 -31 18 -40 44 -40 186 -63 210 -34
7 8 12 177 14 477 5 528 4 520 86 612 53 58 125 108 158 108 12 0 32 -9 45
-19 l24 -19 7 -389 c3 -213 11 -413 17 -443 8 -39 19 -62 40 -81 43 -40 134
-70 228 -76 70 -5 87 -3 126 16 64 31 123 100 169 197 l39 84 24 -28 c47 -56
201 -122 285 -122 74 0 192 85 262 190 17 24 17 23 17 -64 l1 -89 -122 -126
c-185 -190 -255 -290 -283 -399 -23 -90 -14 -134 41 -192 82 -88 212 -137 312
-119 99 19 215 96 252 170 25 48 38 137 46 318 7 130 9 141 25 136 19 -6 59
10 71 29 25 36 -11 96 -57 96 -24 0 -25 2 -25 63 0 61 1 63 56 127 76 89 133
171 185 263 23 42 46 77 49 77 4 0 43 -22 87 -48 93 -56 219 -100 307 -109
137 -13 244 53 313 195 37 74 38 79 38 181 -1 134 -11 163 -160 461 -62 124
-127 265 -144 315 -36 102 -50 120 -106 146 -49 23 -84 24 -112 4z m37 -400
c0 -8 34 -91 75 -184 41 -93 84 -198 97 -233 50 -141 16 -296 -71 -330 -53
-20 -180 73 -217 159 -18 42 -18 135 1 231 23 113 97 372 107 372 4 0 8 -7 8
-15z m-870 -84 c35 -25 38 -45 39 -231 1 -180 -12 -373 -30 -448 -19 -75 -73
-184 -113 -224 -57 -58 -124 -49 -161 21 -22 44 -37 195 -30 301 19 284 85
516 166 584 27 23 39 27 68 21 20 -3 47 -14 61 -24z m45 -1512 c-18 -172 -29
-201 -93 -237 -47 -26 -79 -28 -108 -4 -85 68 -47 165 145 381 66 73 66 73 69
43 2 -17 -4 -99 -13 -183z"/>
<path d="M8206 8699 c-36 -29 -60 -115 -53 -196 7 -94 51 -133 147 -133 43 0
56 5 80 28 34 34 50 87 50 165 0 112 -41 157 -143 157 -40 0 -61 -6 -81 -21z"/>
<path d="M5092 7819 c-12 -5 -27 -20 -34 -34 -10 -23 -8 -33 12 -69 12 -24 20
-48 16 -54 -4 -6 -27 -20 -51 -31 -24 -10 -51 -32 -61 -48 -25 -38 -29 -40
-107 -54 -37 -7 -70 -16 -72 -19 -6 -10 174 -853 184 -863 4 -4 61 4 125 18
65 14 120 25 124 25 3 0 -15 -22 -42 -49 -42 -43 -53 -71 -26 -71 4 0 42 31
83 70 l74 69 188 41 c104 22 191 42 193 45 2 2 -6 57 -19 121 l-24 117 108
101 c96 91 128 136 96 136 -7 0 -58 -43 -114 -95 l-102 -94 -59 280 c-32 154
-62 286 -66 292 -5 9 -27 8 -85 -4 -74 -15 -79 -15 -104 3 -14 11 -48 21 -78
23 -29 3 -57 7 -62 11 -5 3 -9 27 -9 53 0 64 -38 98 -88 80z m48 -59 c0 -13
-7 -20 -19 -20 -22 0 -35 15 -26 30 12 19 45 11 45 -10z m101 -129 c60 -6 64
-8 64 -31 0 -23 -7 -26 -140 -57 -77 -18 -143 -32 -146 -33 -13 0 -18 45 -6
57 7 7 33 23 57 35 33 17 47 31 54 54 l9 31 22 -25 c17 -20 34 -26 86 -31z
m306 -298 l62 -287 -124 -118 c-199 -190 -182 -180 -339 -213 -75 -15 -138
-26 -139 -24 -7 9 -167 782 -163 786 2 3 24 9 48 14 24 5 51 12 61 15 11 3 17
0 17 -9 0 -36 24 -35 205 6 164 38 180 44 183 64 3 23 25 31 123 52 3 0 33
-128 66 -286z m93 -436 c7 -37 11 -70 9 -72 -6 -5 -260 -58 -263 -54 -1 2 49
53 112 113 85 82 116 106 122 95 4 -8 13 -45 20 -82z"/>
<path d="M5171 7399 c-176 -39 -204 -50 -184 -70 7 -7 67 2 204 31 107 23 198
45 203 50 13 13 -3 30 -27 29 -12 -1 -100 -19 -196 -40z"/>
<path d="M5345 7309 c-22 -5 -106 -23 -187 -41 -126 -26 -148 -34 -148 -49 0
-11 6 -19 13 -19 6 0 97 18 200 40 103 22 190 40 192 40 3 0 5 9 5 20 0 22
-11 23 -75 9z"/>
<path d="M5225 7158 c-99 -21 -184 -43 -189 -49 -6 -6 -6 -13 1 -20 9 -9 60
-2 204 29 105 22 196 45 201 50 14 14 1 32 -20 31 -9 -1 -98 -19 -197 -41z"/>
<path d="M3786 7565 c-125 -45 -194 -185 -154 -317 15 -51 82 -126 133 -149
54 -25 156 -25 210 0 87 39 144 126 145 220 0 74 -17 124 -59 172 -66 78 -179
108 -275 74z m147 -36 c91 -25 153 -122 145 -224 -14 -170 -231 -250 -352
-129 -91 91 -85 234 12 314 57 47 121 60 195 39z"/>
<path d="M11444 7162 c-87 -55 -82 -201 9 -248 48 -25 130 -15 167 21 61 59
61 151 0 210 -40 38 -128 47 -176 17z m135 -38 c30 -21 51 -71 44 -107 -13
-69 -118 -103 -168 -53 -66 66 -27 176 62 176 21 0 49 -7 62 -16z"/>
<path d="M4397 7133 c-8 -10 -20 -37 -26 -60 -15 -55 -52 -98 -106 -122 -25
-11 -71 -41 -104 -68 -213 -172 -418 -214 -611 -126 -41 19 -87 57 -176 147
-107 107 -179 166 -203 166 -25 0 -61 -46 -76 -95 -13 -46 -14 -66 -4 -120 12
-69 62 -184 104 -239 18 -24 25 -45 25 -77 0 -64 44 -142 125 -224 82 -82 168
-135 280 -172 70 -23 97 -27 215 -27 158 -1 222 13 350 76 69 33 101 58 170
127 126 128 187 246 210 410 11 77 7 112 -18 151 -11 18 -15 44 -13 91 2 72
-13 123 -48 158 -26 26 -72 27 -94 4z m83 -63 c22 -42 26 -110 10 -141 -9 -15
-5 -26 16 -54 25 -33 26 -40 22 -118 -15 -264 -226 -511 -498 -584 -44 -12
-103 -18 -185 -18 -106 0 -130 3 -209 29 -156 51 -295 162 -354 283 -19 38
-23 57 -16 72 9 19 12 18 94 -16 269 -112 529 -121 725 -24 144 71 250 187
340 371 47 97 53 132 24 138 -20 4 -62 -60 -57 -85 3 -10 -7 -40 -20 -68 -91
-184 -252 -323 -423 -364 -179 -42 -405 -9 -621 91 -76 35 -92 47 -119 89 -67
104 -95 219 -72 289 8 25 19 49 23 54 16 17 95 -43 186 -141 103 -110 174
-159 273 -185 189 -49 383 9 581 173 25 21 66 46 91 57 50 22 89 62 108 113
27 72 31 79 46 79 8 0 24 -18 35 -40z"/>
<path d="M4369 6658 c-38 -74 -133 -172 -206 -211 -28 -15 -85 -36 -125 -46
-58 -15 -73 -23 -73 -37 0 -25 45 -21 132 11 138 50 245 141 304 257 29 57 32
88 9 88 -5 0 -24 -28 -41 -62z"/>
<path d="M11295 6741 c-74 -34 -115 -95 -115 -171 0 -76 41 -137 115 -171 105
-49 223 10 254 128 31 114 -66 234 -189 233 -14 0 -43 -9 -65 -19z m132 -41
c130 -59 103 -248 -40 -275 -77 -15 -167 63 -167 144 0 75 72 147 150 150 8 0
34 -8 57 -19z"/>
<path d="M9128 6568 c-15 -11 -30 -45 -62 -132 -6 -17 -11 -14 -42 23 -61 71
-124 89 -140 38 -5 -17 2 -29 39 -62 43 -37 86 -110 73 -123 -3 -3 -17 0 -31
6 -74 34 -171 2 -206 -68 -16 -32 -209 -922 -209 -963 0 -53 59 -107 115 -107
60 0 77 22 331 444 230 382 248 415 252 466 5 70 -22 113 -93 152 l-50 27 49
22 c38 16 59 20 96 15 71 -9 104 29 60 69 -16 14 -36 18 -94 17 l-73 -1 28 72
c24 62 26 75 15 92 -17 25 -36 29 -58 13z m-51 -280 c-16 -16 -27 -33 -25 -39
2 -7 26 -20 53 -31 69 -26 96 -56 102 -109 5 -43 -2 -56 -245 -459 -264 -437
-268 -442 -326 -421 -51 20 -51 38 -1 277 59 281 54 264 75 264 29 0 35 21 11
39 -14 11 -20 23 -16 33 6 15 10 15 48 -2 23 -10 45 -16 49 -14 20 13 4 36
-37 54 -45 19 -50 26 -39 54 5 13 17 10 75 -20 39 -19 74 -32 79 -29 24 15 4
35 -65 68 -41 20 -75 42 -75 49 2 39 49 220 64 243 31 47 95 58 168 27 56 -24
68 -19 68 28 0 43 23 57 50 30 13 -13 12 -17 -13 -42z"/>
<path d="M5735 6406 c-85 -37 -136 -139 -136 -270 0 -141 46 -233 149 -301 1
-1 11 -135 22 -298 10 -163 23 -305 29 -316 30 -55 114 -69 156 -27 13 13 27
35 30 48 3 12 -10 153 -29 312 l-34 290 34 39 c58 69 83 177 65 283 -32 184
-163 294 -286 240z m127 -49 c140 -84 165 -341 46 -464 l-30 -31 36 -303 c33
-275 35 -305 21 -326 -19 -28 -65 -31 -89 -4 -14 15 -20 69 -36 321 -10 167
-23 306 -27 310 -4 3 -25 18 -45 33 -107 78 -133 322 -45 429 27 33 73 58 107
58 14 0 42 -10 62 -23z"/>
<path d="M9539 6351 c-36 -36 -37 -70 -3 -110 20 -25 34 -31 64 -31 30 0 44 6
64 31 14 17 26 42 26 56 0 36 -51 83 -90 83 -22 0 -41 -9 -61 -29z m94 -32
c28 -39 -5 -79 -52 -64 -27 8 -34 34 -16 61 19 30 49 31 68 3z"/>
<path d="M5430 6341 c0 -20 16 -195 25 -273 l6 -48 -41 0 c-22 0 -40 3 -40 8
0 4 -7 72 -15 152 -8 80 -15 151 -15 158 0 21 -40 14 -40 -7 0 -20 16 -195 25
-273 5 -46 5 -48 -19 -48 -31 0 -31 1 -47 180 -6 74 -13 138 -16 143 -2 4 -11
7 -20 7 -14 0 -15 -11 -9 -82 3 -46 9 -122 13 -170 l6 -88 -36 0 c-44 0 -42
-7 -58 180 -6 74 -13 138 -16 143 -12 20 -33 5 -33 -24 0 -92 33 -378 47 -412
15 -35 66 -90 92 -98 8 -3 18 -104 32 -303 10 -164 24 -306 29 -317 12 -21 60
-49 85 -49 30 0 72 29 85 59 10 25 6 77 -23 323 l-34 293 32 35 c18 19 38 45
44 57 15 29 13 127 -4 303 -8 80 -15 151 -15 158 0 21 -40 14 -40 -7z m30
-387 c0 -39 -29 -92 -61 -111 -16 -10 -29 -21 -29 -25 0 -5 16 -143 35 -309
25 -213 32 -305 25 -319 -21 -38 -81 -33 -94 8 -4 10 -15 153 -26 318 -11 164
-23 300 -27 301 -52 18 -100 70 -105 113 -3 25 -1 25 107 36 177 18 175 18
175 -12z"/>
<path d="M11000 6223 c-61 -23 -110 -95 -110 -163 0 -50 32 -113 70 -140 40
-28 126 -38 170 -20 72 30 122 130 101 202 -14 45 -53 93 -92 113 -27 15 -109
19 -139 8z"/>
<path d="M10080 6181 c-5 -11 -10 -28 -10 -39 0 -17 -10 -20 -95 -25 -393 -26
-715 -278 -775 -606 -13 -70 -7 -81 40 -80 17 0 31 10 45 32 25 40 97 77 149
77 80 0 166 -66 166 -126 0 -29 23 -46 57 -42 21 2 29 9 31 27 19 129 246 150
345 32 32 -38 31 -20 12 -336 -28 -464 -28 -460 -61 -503 -87 -108 -242 -107
-328 1 -28 35 -31 45 -30 110 0 40 2 81 5 92 3 15 -1 20 -16 20 -16 0 -23 -11
-33 -50 -48 -194 159 -357 343 -271 55 25 100 71 122 124 9 21 17 104 23 225
12 233 28 481 35 523 12 70 75 115 160 115 93 0 159 -49 172 -127 5 -32 8 -34
44 -34 29 0 39 4 39 15 0 51 62 107 133 120 83 16 180 -40 202 -115 9 -31 14
-35 45 -35 l35 0 -1 90 c-3 170 -79 330 -222 467 -129 124 -285 203 -467 237
-89 17 -90 18 -90 47 -1 16 -4 35 -8 42 -12 19 -55 14 -67 -7z m-100 -138
c-54 -27 -96 -59 -150 -113 -105 -105 -162 -217 -190 -377 l-13 -72 -28 30
c-82 88 -238 92 -321 9 -43 -42 -47 -34 -23 43 71 235 287 424 557 486 98 23
126 28 193 29 l50 2 -75 -37z m278 12 c255 -53 468 -210 573 -420 38 -77 68
-187 69 -249 0 -29 -1 -29 -29 16 -40 62 -103 93 -192 93 -56 0 -73 -5 -116
-31 l-50 -31 -11 91 c-22 178 -78 291 -207 422 -49 50 -101 98 -115 107 -33
21 -13 22 78 2z m-171 -82 c-4 -38 -9 -166 -13 -285 -4 -120 -10 -218 -14
-218 -4 0 -13 6 -19 14 -6 7 -39 26 -72 41 -53 23 -71 27 -134 23 -64 -3 -79
-8 -120 -37 l-47 -34 7 44 c38 226 150 395 317 479 44 22 85 40 90 40 7 0 8
-25 5 -67z m119 5 c101 -82 185 -198 224 -313 20 -59 43 -212 33 -228 -2 -4
-17 6 -33 23 -64 68 -188 85 -275 37 l-48 -27 7 192 c8 227 17 368 24 368 2 0
33 -23 68 -52z"/>
<path d="M8291 6103 c-15 -11 -39 -16 -67 -14 -39 2 -49 -2 -79 -32 -77 -77
-24 -182 126 -251 61 -29 72 -26 122 36 86 107 97 212 26 262 -30 20 -97 20
-128 -1z m111 -40 c39 -35 12 -147 -52 -208 l-29 -28 -56 29 c-89 44 -130 107
-107 159 15 34 58 43 96 21 22 -13 32 -14 34 -6 16 46 80 64 114 33z"/>
<path d="M6679 6063 c-17 -46 -22 -107 -10 -148 6 -21 9 -40 8 -42 -2 -1 -30
5 -62 13 -231 61 -395 -106 -395 -402 0 -213 89 -393 227 -461 47 -23 72 -28
143 -29 67 -1 98 -7 149 -29 129 -55 259 -19 381 104 122 124 185 283 178 451
-5 112 -24 158 -89 214 -65 55 -124 71 -256 70 -62 -1 -113 2 -113 6 0 21 42
124 63 155 35 51 64 69 122 75 36 4 50 9 50 20 0 11 -14 16 -50 18 -62 4 -103
-21 -155 -90 l-34 -47 -14 32 c-16 39 -57 84 -94 103 -36 19 -37 18 -49 -13z
m73 -60 c15 -16 32 -41 37 -56 13 -35 14 -127 2 -127 -19 0 -79 82 -86 116 -7
38 2 94 14 94 4 0 19 -12 33 -27z m-141 -159 c30 -9 87 -33 128 -55 l74 -40
79 12 c176 26 313 -32 352 -148 51 -151 -15 -373 -153 -512 -86 -88 -144 -116
-236 -116 -55 0 -82 6 -125 27 -46 22 -68 26 -135 25 -93 -1 -133 13 -194 68
-95 86 -147 240 -139 410 9 165 64 275 161 321 61 28 112 30 188 8z"/>
<path d="M6427 5758 c-96 -128 -123 -308 -68 -450 23 -60 27 -64 50 -49 12 8
11 18 -9 63 -51 116 -32 273 45 389 49 72 33 114 -18 47z"/>
<path d="M7695 5961 c-178 -81 -178 -334 -1 -417 65 -31 126 -31 191 0 87 40
135 115 135 208 -1 92 -58 177 -142 212 -50 21 -134 20 -183 -3z m197 -51
c126 -86 111 -269 -27 -331 -147 -67 -305 77 -254 232 14 42 64 96 104 115 45
21 135 13 177 -16z"/>
<path d="M3912 5939 c-56 -28 -98 -80 -112 -140 -28 -114 49 -229 168 -254 93
-19 209 55 233 150 11 44 55 95 83 95 24 0 67 -57 73 -96 17 -113 98 -184 208
-184 129 0 214 95 203 226 -9 105 -97 184 -202 184 -82 -1 -147 -39 -192 -116
-10 -17 -12 -17 -39 4 -32 26 -59 28 -99 7 -36 -19 -33 -19 -40 10 -9 37 -65
96 -111 116 -54 25 -120 24 -173 -2z m145 -30 c40 -15 91 -67 104 -107 6 -19
8 -53 4 -78 -12 -84 -114 -156 -192 -138 -162 38 -187 248 -39 315 47 21 82
24 123 8z m606 -62 c73 -56 88 -160 32 -233 -94 -124 -295 -57 -295 98 0 72
38 131 100 157 43 19 124 8 163 -22z"/>
<path d="M8134 5436 c-30 -30 -34 -40 -34 -86 0 -46 4 -56 33 -85 44 -44 94
-54 144 -28 79 41 93 135 28 200 -29 29 -39 33 -85 33 -46 0 -56 -4 -86 -34z"/>
<path d="M4230 5319 c-14 -6 -37 -22 -52 -36 -88 -85 6 -235 126 -202 111 31
117 190 10 235 -38 16 -50 16 -84 3z"/>
<path d="M7640 5218 c-24 -13 -58 -40 -74 -61 -29 -36 -31 -45 -31 -117 l0
-77 -55 -29 c-84 -44 -181 -141 -221 -221 -41 -84 -47 -173 -26 -373 8 -74 13
-138 10 -142 -2 -5 -13 -8 -23 -8 -37 0 -40 -28 -20 -221 11 -102 22 -193 26
-202 4 -12 18 -17 48 -17 86 0 1172 113 1185 123 15 13 13 65 -10 290 -13 125
-22 147 -63 147 -22 0 -23 5 -35 133 -17 186 -28 243 -62 314 -59 125 -179
212 -339 247 -22 4 -25 11 -27 50 -2 51 -20 90 -60 128 -63 60 -149 73 -223
36z m154 -38 c52 -26 77 -61 84 -115 l4 -43 -88 0 c-49 -1 -111 -7 -139 -15
-27 -8 -57 -16 -65 -18 -11 -3 -16 6 -18 35 -5 53 3 79 35 117 50 59 118 73
187 39z m-56 -296 c6 -53 13 -99 16 -101 3 -3 12 -3 21 1 13 5 15 15 11 44
-18 119 -18 152 -4 152 18 0 68 -106 68 -143 0 -25 22 -52 33 -40 13 13 7 73
-13 124 -12 28 -19 53 -17 55 2 3 37 -3 78 -11 179 -38 289 -126 340 -272 18
-52 58 -378 47 -388 -6 -6 -1019 -107 -1025 -102 -10 11 -34 297 -30 362 4 76
34 148 89 217 50 62 178 142 275 172 21 7 22 5 12 -22 -15 -45 -8 -157 11
-157 11 0 16 18 21 75 7 84 22 130 42 130 10 0 17 -26 25 -96z m656 -622 c6
-10 40 -351 35 -356 -8 -8 -1158 -120 -1165 -114 -3 4 -13 84 -23 178 -14 146
-15 173 -3 178 8 3 267 31 576 62 308 32 564 58 568 59 4 0 9 -2 12 -7z"/>
<path d="M8955 5056 l-290 -72 -22 -59 c-12 -33 -22 -72 -22 -86 -1 -38 128
-792 138 -802 4 -4 137 19 296 52 l288 59 49 49 49 49 -66 420 c-36 230 -68
429 -70 442 -4 17 -12 22 -33 21 -15 -1 -157 -33 -317 -73z m340 -153 c16 -98
45 -281 65 -408 l37 -230 -20 -22 c-11 -13 -23 -23 -27 -23 -4 0 -35 171 -70
379 -35 209 -67 385 -71 393 -6 10 -60 0 -261 -50 -139 -34 -258 -62 -265 -62
-8 0 -8 9 -1 34 l11 35 261 64 c144 36 273 65 287 66 l26 1 28 -177z m-115 44
c0 -7 120 -722 125 -743 4 -19 -10 -23 -252 -73 -141 -29 -259 -48 -263 -44
-7 8 -132 735 -127 739 1 2 108 30 237 62 213 55 280 68 280 59z"/>
<path d="M8935 4685 c-90 -23 -131 -37 -133 -48 -2 -8 1 -17 5 -20 11 -7 284
60 296 72 13 13 -1 31 -21 30 -9 -1 -75 -16 -147 -34z"/>
<path d="M8953 4612 c-122 -29 -143 -37 -143 -53 0 -24 -1 -24 128 6 166 39
182 45 182 59 0 25 -23 23 -167 -12z"/>
<path d="M4943 5080 c-105 -22 -206 -108 -243 -208 -30 -79 -25 -195 12 -267
32 -61 103 -129 166 -158 71 -33 198 -31 272 4 117 56 190 169 190 296 0 91
-26 165 -81 227 -73 83 -208 128 -316 106z m195 -66 c179 -89 217 -328 75
-470 -72 -72 -184 -100 -286 -70 -78 23 -158 97 -187 174 -57 150 21 326 167
378 21 7 70 13 109 14 56 0 80 -5 122 -26z"/>
<path d="M6181 4704 c-211 -40 -389 -78 -396 -84 -14 -12 -35 -85 -35 -123 0
-13 9 -32 20 -42 24 -22 23 -54 -2 -66 -10 -5 -26 -13 -35 -17 -20 -10 -65
-160 -61 -202 4 -32 27 -42 155 -71 l103 -23 23 22 c35 33 65 29 82 -12 8 -19
19 -37 24 -40 4 -3 156 -41 337 -85 230 -56 333 -77 345 -70 10 5 23 32 30 65
l13 56 -34 28 c-40 33 -36 60 9 60 41 0 54 23 85 156 31 132 32 167 7 240 -41
115 -196 285 -259 283 -15 0 -200 -34 -411 -75z m502 -36 c78 -79 132 -168
143 -236 7 -47 10 -47 -71 -28 -58 14 -95 9 -95 -14 0 -13 -30 -40 -45 -40
-22 0 -47 31 -42 52 11 42 -19 54 -335 129 -169 41 -304 76 -302 79 5 5 626
127 657 129 10 1 50 -32 90 -71z m-515 -163 c193 -47 354 -85 357 -85 3 0 5
-12 5 -26 0 -31 50 -84 79 -84 31 0 70 21 76 42 7 21 16 22 85 7 27 -6 50 -16
50 -22 0 -7 -11 -52 -23 -101 -21 -84 -24 -89 -51 -92 -68 -7 -91 -83 -37
-126 24 -19 28 -28 24 -51 -3 -16 -11 -31 -18 -33 -10 -4 -530 116 -616 142
-9 2 -22 18 -29 35 -22 52 -86 66 -132 29 -25 -19 -26 -19 -122 4 -53 13 -99
26 -102 29 -3 3 0 25 6 48 6 24 16 61 21 82 5 20 16 37 24 37 8 0 26 11 41 23
34 30 37 77 6 110 -12 13 -22 27 -22 33 0 13 20 84 24 84 2 0 161 -38 354 -85z"/>
<path d="M6418 4661 c-96 -20 -85 -122 17 -161 72 -27 166 -7 177 38 19 70
-97 143 -194 123z m120 -61 c24 -15 32 -27 30 -43 -7 -48 -157 -26 -174 25 -4
13 -1 24 7 29 26 16 103 10 137 -11z"/>
<path d="M6035 4460 c-26 -10 -61 -49 -70 -78 -9 -32 12 -88 42 -112 48 -38
137 -18 161 35 29 63 6 126 -54 151 -37 16 -50 16 -79 4z m88 -58 c23 -20 22
-67 -3 -92 -52 -52 -139 8 -109 74 21 45 72 53 112 18z"/>
<path d="M6324 4262 c-91 -73 -26 -217 89 -195 14 3 38 18 54 35 22 23 28 38
28 74 0 39 -5 50 -33 75 -38 34 -103 40 -138 11z m119 -53 c33 -45 1 -99 -58
-99 -59 0 -86 69 -44 111 28 28 76 22 102 -12z"/>
<path d="M3597 2823 c-4 -3 -7 -156 -7 -338 0 -353 1 -362 47 -353 16 3 18 18
21 146 l3 142 40 27 c53 35 119 37 151 5 21 -21 23 -34 28 -164 4 -115 8 -143
21 -151 9 -6 24 -7 33 -4 14 6 16 26 16 153 0 164 -10 202 -64 235 -42 26
-129 25 -181 -1 -22 -11 -41 -20 -42 -20 -2 0 -3 74 -3 165 l0 165 -28 0 c-16
0 -32 -3 -35 -7z"/>
<path d="M5840 2486 c0 -232 3 -347 11 -351 5 -4 21 -4 35 -1 l24 6 0 143 0
143 30 18 c50 29 91 37 128 25 51 -17 62 -54 62 -203 0 -77 4 -127 11 -131 5
-4 21 -4 35 -1 24 6 24 7 24 134 0 145 -10 190 -49 234 -25 28 -36 32 -93 36
-52 3 -73 0 -106 -17 l-42 -21 0 165 0 165 -35 0 -35 0 0 -344z"/>
<path d="M8390 2486 c0 -231 3 -347 11 -351 5 -4 21 -4 35 -1 l24 6 0 145 0
145 38 18 c58 30 88 34 126 18 46 -19 56 -57 56 -208 0 -71 4 -119 11 -123 5
-4 21 -4 35 -1 24 6 24 7 24 134 0 145 -10 190 -49 234 -25 28 -36 32 -93 36
-52 3 -73 0 -106 -17 l-42 -21 -2 162 -3 163 -32 3 -33 3 0 -345z"/>
<path d="M6920 2540 c-19 -4 -49 -14 -67 -23 -39 -21 -43 -21 -43 -1 0 11 -8
14 -27 12 l-28 -3 0 -189 c0 -163 2 -190 16 -199 9 -6 24 -7 33 -4 14 5 16 26
16 147 l0 140 40 26 c58 39 123 39 156 1 23 -27 24 -35 24 -167 l0 -140 24 -6
c14 -3 30 -3 35 1 17 10 14 288 -3 330 -24 57 -98 88 -176 75z"/>
<path d="M7378 2541 c-103 -21 -160 -126 -124 -230 12 -36 13 -47 2 -55 -29
-24 -46 -63 -46 -102 0 -34 6 -48 29 -69 l29 -28 -25 -36 c-63 -93 23 -193
167 -195 122 -1 210 68 210 164 0 94 -47 122 -213 128 -112 4 -119 6 -129 28
-15 33 14 79 45 69 51 -16 123 -17 158 -2 84 35 123 148 81 230 l-20 38 29 6
c22 4 29 11 29 28 0 13 -7 26 -16 29 -21 8 -159 6 -206 -3z m97 -84 c35 -29
45 -99 21 -145 -50 -97 -187 -52 -186 60 1 90 100 141 165 85z m50 -432 c33
-32 31 -61 -6 -96 -56 -53 -154 -52 -202 1 -32 36 -30 62 9 98 21 19 36 22
100 22 66 0 78 -3 99 -25z"/>
<path d="M10890 2540 c-19 -4 -49 -14 -67 -23 -39 -21 -43 -21 -43 -1 0 11 -8
14 -27 12 l-28 -3 -3 -192 -2 -193 24 -6 c14 -3 30 -3 35 1 7 4 11 58 11 145
0 138 0 139 26 159 33 26 96 43 128 35 54 -13 61 -34 64 -190 3 -142 4 -144
27 -150 13 -3 29 -3 34 1 7 4 11 59 11 148 -1 195 -21 239 -120 257 -19 3 -51
3 -70 0z"/>
<path d="M4175 2525 c-123 -62 -153 -238 -57 -338 126 -133 343 -35 342 154 0
37 -31 113 -58 142 -48 53 -163 74 -227 42z m129 -59 c93 -39 113 -167 37
-240 -60 -58 -153 -41 -192 36 -39 76 -13 163 61 200 42 22 51 22 94 4z"/>
<path d="M4740 2433 c-24 -59 -50 -121 -58 -138 l-15 -30 -31 115 c-43 154
-40 150 -76 150 -16 0 -30 -4 -30 -9 0 -19 112 -387 121 -396 16 -17 35 16 90
158 29 75 56 137 59 137 3 0 31 -66 64 -145 32 -80 63 -148 68 -151 5 -4 14
-2 19 3 10 10 118 367 119 391 0 9 -11 12 -32 10 l-32 -3 -34 -128 c-20 -70
-38 -125 -41 -122 -3 3 -29 63 -57 133 -69 168 -76 169 -134 25z"/>
<path d="M5464 2508 c-61 -42 -94 -102 -94 -172 1 -177 198 -276 325 -165 39
34 43 50 19 70 -12 10 -19 10 -32 1 -55 -40 -80 -52 -108 -52 -64 0 -134 75
-134 145 0 17 8 45 18 64 39 77 119 97 188 48 l39 -27 20 20 c24 24 15 43 -35
78 -25 17 -47 22 -95 22 -54 0 -69 -4 -111 -32z"/>
<path d="M6372 2529 c-28 -8 -33 -14 -30 -37 2 -22 7 -26 28 -24 159 18 166
16 177 -52 l6 -36 -60 6 c-102 11 -174 -31 -188 -109 -8 -43 19 -111 53 -133
38 -25 110 -23 155 3 l36 21 14 -21 c9 -13 19 -18 30 -14 15 6 17 26 17 167 0
221 -11 241 -137 239 -37 0 -83 -5 -101 -10z m171 -206 c4 -2 7 -22 7 -43 0
-30 -6 -43 -31 -64 -62 -53 -149 -30 -149 39 0 40 17 63 55 75 27 8 99 4 118
-7z"/>
<path d="M7778 2520 c-69 -37 -104 -115 -95 -213 13 -148 155 -223 300 -159
50 22 56 35 32 62 -15 16 -18 16 -53 -1 -72 -37 -152 -18 -191 44 -41 66 -39
67 129 67 149 0 150 0 156 24 14 56 -36 150 -97 181 -40 21 -136 18 -181 -5z
m151 -54 c28 -15 64 -73 55 -88 -7 -12 -222 -10 -229 2 -10 16 23 68 53 84 35
19 85 20 121 2z"/>
<path d="M8920 2527 c-26 -9 -34 -17 -32 -32 6 -32 18 -38 53 -26 43 15 124
14 137 -1 6 -7 13 -30 17 -50 l7 -37 -68 5 c-79 6 -123 -11 -158 -59 -29 -39
-27 -113 3 -155 38 -54 134 -63 196 -18 17 12 21 11 35 -7 11 -13 23 -18 33
-14 15 6 17 26 17 162 0 166 -10 214 -48 234 -27 15 -148 13 -192 -2z m143
-198 c35 -9 37 -12 37 -49 0 -30 -6 -43 -31 -64 -62 -53 -149 -30 -149 39 0
40 17 63 55 74 41 12 44 12 88 0z"/>
<path d="M9396 2524 c-21 -12 -30 -13 -36 -4 -4 6 -18 10 -31 8 l-24 -3 -3
-334 c-2 -351 -1 -365 42 -359 20 3 21 9 24 161 2 146 4 158 20 152 109 -45
214 -10 261 88 47 97 10 236 -75 284 -47 27 -134 30 -178 7z m156 -70 c48 -43
62 -133 30 -193 -36 -67 -124 -88 -187 -47 -24 16 -25 21 -25 114 0 89 2 100
23 119 12 11 29 23 37 26 27 11 101 0 122 -19z"/>
<path d="M9876 2524 c-21 -12 -30 -13 -36 -4 -4 6 -18 10 -31 8 l-24 -3 -3
-334 c-2 -351 -1 -365 42 -359 20 3 21 9 24 161 2 146 4 158 20 152 78 -32
149 -25 208 20 106 81 94 283 -20 350 -50 29 -134 33 -180 9z m156 -70 c48
-43 62 -133 30 -193 -36 -67 -124 -88 -187 -47 -24 16 -25 21 -25 114 0 89 2
100 23 119 12 11 29 23 37 26 27 11 101 0 122 -19z"/>
<path d="M10337 2519 c-117 -62 -132 -271 -26 -352 68 -51 164 -56 249 -12 34
17 37 31 15 55 -15 16 -18 16 -53 -1 -71 -37 -155 -18 -192 44 -40 65 -37 67
129 67 167 0 166 0 155 71 -8 50 -39 97 -83 126 -45 30 -139 31 -194 2z m146
-50 c31 -16 57 -50 57 -76 0 -23 -2 -23 -115 -23 -74 0 -115 4 -115 10 0 24
32 70 58 84 32 18 85 20 115 5z"/>
<path d="M11224 2506 c-57 -57 -39 -125 44 -172 110 -63 123 -74 120 -102 -2
-16 -13 -32 -30 -41 -24 -14 -31 -13 -84 8 -55 23 -57 24 -71 5 -18 -25 -13
-34 32 -58 82 -43 188 -18 221 52 31 65 0 113 -114 172 -35 19 -67 41 -73 51
-24 46 29 72 99 47 37 -14 45 -14 57 -1 39 38 -14 73 -111 73 -50 0 -59 -3
-90 -34z"/>
</g>
</svg>
